<?xml version="1.0" standalone="no"?>
<!DOCTYPE svg PUBLIC "-//W3C//DTD SVG 1.1//EN" 
"http://www.w3.org/Graphics/SVG/1.1/DTD/svg11.dtd">

<svg width="100%" height="100%" version="1.1"
xmlns="http://www.w3.org/2000/svg">

<circle cx="20" cy="20" r="20" stroke="black" stroke-width="0" fill="white"/><path d="M20 0 L20 0 L20.34710897247486 0.11414028522288433 L20.69023449033835 0.23427031006677268 L21.029273806111227 0.36028581649338065 L21.364126597662896 0.4920807949189907 L21.69469499787113 0.6295475371049513 L22.020883623174633 0.7725766895467139 L22.342599601010058 0.92105730733903 L22.659752596125696 1.074876908494435 L22.972254835764385 1.2339215286923846 L23.280021133708683 1.3980757764360696 L23.582968913181787 1.5672228885938644 L23.881018228598172 1.7412447863022962 L24.174091786158385 1.9200221312073005 L24.462114963282758 2.1034343820205095 L24.745015826879545 2.2913598513670834 L25.022725150443094 2.483675762901747 L25.295176429978454 2.680258308669469 L25.562305898749052 2.8809827066872344 L25.82405254084469 3.085723258723334 L26.080358103567445 3.2943534082505153 L26.33116710863364 3.506745798549435 L26.576426862190456 3.7227723309386214 L26.81608746364622 3.9423042231074312 L27.05010181331387 4.165212067528254 L27.2784256188676 4.391365889924362 L27.5010174006131 4.6206352077698085 L27.717838495572295 4.852889088797745 L27.928853060383933 5.087996209493678 L28.134028073021877 5.325824913550138 L28.333333333333332 5.5662432702593545 L28.526741462399784 5.809119132820584 L28.714227900723813 6.054320196538773 L28.895770905245442 6.301714056891408 L29.071351545192115 6.551168267440435 L29.24095369676685 6.802550397566243 L29.40456403667957 7.055728090000843 L29.562172034526988 7.310569118137456 L29.71376994402705 7.56694144309394 L29.85935279311412 7.824713270507456 L29.99891837290172 8.083753107038119 L30.132467225520056 8.343929816559408 L30.260002630835828 8.60511267601329 L30.381530592062475 8.867171430908183 L30.497059820269293 9.12997635043816 L30.606601717798213 9.393398282201787 L30.710170360597694 9.657308706499371 L30.807782479483297 9.921579790187522 L30.899457440335116 10.186084440070077 L30.985217223242568 10.450696355804837 L31.065086400607463 10.715290082305543 L31.13909211421658 10.979741061618995 L31.207264051295603 11.243925684257304 L31.26963441955624 11.50772133996554 L31.326237921249266 11.771006467905375 L31.377111726235995 12.03366060623547 L31.422295444091688 12.295564441069708 L31.461831095254126 12.556599854794626 L31.49576308123155 12.816649973727667 L31.524138153883953 13.075599215098158 L31.547005383792513 13.333333333333332 L31.56441612773201 13.589739465631764 L31.576423995261486 13.84470617680721 L31.58308481444878 14.098123503385892 L31.584456596744822 14.34988299694078 L31.580599501023862 14.599877766646618 L31.57157579680628 14.848002521039863 L31.55744982668064 15.094153608968007 L31.538287967942246 15.338229059713097 L31.514158593465485 15.580128622274628 L31.485132031827767 15.819753803797381 L31.451280526702835 16.05700790712999 L31.412678195541844 16.29179606750063 L31.36940098756053 16.52402528829635 L31.32152664105131 16.75360447593312 L31.26913464003913 16.980444473803924 L31.2123061703004 17.204458095292726 L31.15112407476436 17.425560155842433 L31.085672808316463 17.64366750406539 L31.016038392023784 17.85869905188544 L30.942308366802312 18.070575803700773 L30.864571746546517 18.27922088455746 L30.78291897074154 18.48455956732373 L30.697441856578692 18.686519298855632 L30.608233550594917 18.88502972514503 L30.515388479857315 19.080022715441388 L30.41900230271372 19.271432385339136 L30.3191718591306 19.45919511882291 L30.215995120639647 19.643249589263323 L30.10957113991462 19.823536779356356 L30 20 L29.887382763213203 20.172584908102024 L29.77182141974227 20.34123952331334 L29.653418835960878 20.505914243681787 L29.532278702482763 20.66656186022164 L29.408505481977596 20.82313757039455 L29.282204356770553 20.9755989904981 L29.153481176247748 21.12390616695858 L29.022442404089862 21.26802158652504 L28.88919506535624 21.40791018536208 L28.75384669344185 21.543539357039382 L28.616505276929495 21.674878959416336 L28.477279206359647 21.80190132042058 L28.336277220940346 21.924581242719732 L28.193608355219524 22.042896007286082 L28.049381885742235 22.15682537585434 L27.903707277715064 22.266351592273104 L27.756694131700176 22.371459382751087 L27.60845213036123 22.47213595499958 L27.4590909852835 22.568370996273124 L27.3087203838904 22.660156670310755 L27.157449936478546 22.747487613180635 L27.005389123393506 22.830360928031336 L26.852647242368167 22.90877617875348 L26.69933335604574 22.982735382555866 L26.545556239709136 23.052243001460607 L26.391424329238518 23.117305932722328 L26.237045669318576 23.177933498176827 L26.082527861917054 23.234137432525024 L25.927978015055906 23.285931870558507 L25.773502691896258 23.333333333333332 L25.61920786015829 23.376360713299242 L25.465198841896967 23.415035258391764 L25.311580263654353 23.44938055509517 L25.15845600700915 23.479422510484646 L25.00592915954384 23.50518933325639 L24.854101966249686 23.52671151375484 L24.703075781389614 23.54402180300651 L24.55295102083884 23.55715519077047 L24.403827114922837 23.566148882615742 L24.2558024617721 23.57104227603633 L24.108974381212867 23.571876935614984 L23.963439069212768 23.568696567247244 L23.81929155290011 23.561546991437492 L23.676625646175328 23.550476115679317 L23.535533905932738 23.535533905932738 L23.396107588910652 23.516772357211185 L23.258436609187495 23.49424546329159 L23.12260949634134 23.468009185561172 L22.988713354290088 23.43812142101485 L22.856833820829063 23.40464196941768 L22.72705502788263 23.367632499646874 L22.599459562486114 23.32715651522838 L22.474128428513975 23.283279319083316 L22.351141009169893 23.23606797749979 L22.23057503025407 23.185591283346078 L22.112506524222823 23.13191971854127 L21.9970097950551 23.07512541579989 L21.884157383940284 23.015282119667294 L21.774020035801296 22.952465146862828 L21.666666666666664 22.886751345948127 L21.562164331904864 22.81821905633805 L21.460578195333884 22.746948066672218 L21.36197149921864 22.673019572565103 L21.266405535168445 22.59651613375315 L21.173939615946388 22.517521630657363 L21.084631048202134 22.43612122038027 L20.998535106139258 22.352401292156237 L20.915705006127784 22.266449422274366 L20.836191882272367 22.17835432849347 L20.76004476294593 22.088205823968686 L20.68731054829844 21.996094770709668 L20.618033988749897 21.902113032590307 L20.55225766447628 21.80635342793018 L20.49002196589689 21.70890968166812 L20.43136507517087 21.60987637714845 L20.376322948710595 21.509348907540442 L20.324929300718914 21.407423426912004 L20.277215587757013 21.304196800978406 L20.23321099434911 21.199766557547143 L20.192942419629922 21.094230836680232 L20.15643446504023 20.987688340595138 L20.123709423075614 20.88023828332584 L20.094787267092894 20.771980340165474 L20.069685642178435 20.663014596912184 L20.04841985708203 20.55344149893986 L20.03100287721961 20.443361800115476 L20.017445318747647 20.332876511584857 L20.007755443711666 20.222086850448687 L20.001939156270808 20.11109418835071 L20 20 L20 20 L19.998060843729192 19.88890581164929 L19.992244556288334 19.777913149551313 L19.982554681252353 19.667123488415143 L19.96899712278039 19.55663819988452 L19.95158014291797 19.446558501060142 L19.930314357821565 19.33698540308782 L19.905212732907106 19.228019659834526 L19.876290576924386 19.11976171667416 L19.84356553495977 19.012311659404862 L19.807057580370078 18.905769163319768 L19.76678900565089 18.800233442452853 L19.722784412242987 18.695803199021594 L19.675070699281083 18.592576573087992 L19.623677051289405 18.49065109245956 L19.568634924829134 18.390123622851554 L19.509978034103113 18.29109031833188 L19.44774233552372 18.193646572069824 L19.381966011250107 18.097886967409693 L19.31268945170156 18.003905229290332 L19.23995523705407 17.911794176031314 L19.163808117727633 17.82164567150653 L19.084294993872216 17.73355057772563 L19.001464893860746 17.647598707843763 L18.915368951797866 17.56387877961973 L18.826060384053612 17.48247836934264 L18.733594464831555 17.40348386624685 L18.63802850078136 17.326980427434897 L18.539421804666116 17.253051933327782 L18.437835668095136 17.18178094366195 L18.333333333333332 17.113248654051873 L18.225979964198704 17.04753485313717 L18.115842616059716 16.984717880332706 L18.0029902049449 16.92487458420011 L17.887493475777177 16.86808028145873 L17.76942496974593 16.814408716653922 L17.648858990830107 16.76393202250021 L17.525871571486025 16.716720680916684 L17.40054043751389 16.67284348477162 L17.272944972117372 16.632367500353126 L17.143166179170937 16.595358030582318 L17.011286645709912 16.561878578985148 L16.87739050365866 16.531990814438828 L16.74156339081251 16.50575453670841 L16.603892411089348 16.483227642788815 L16.464466094067262 16.464466094067262 L16.323374353824672 16.44952388432068 L16.18070844709989 16.438453008562508 L16.036560930787232 16.431303432752756 L15.89102561878713 16.428123064385016 L15.744197538227901 16.42895772396367 L15.596172885077166 16.433851117384254 L15.447048979161162 16.44284480922953 L15.296924218610386 16.45597819699349 L15.145898033750315 16.47328848624516 L14.99407084045616 16.494810666743607 L14.84154399299085 16.520577489515354 L14.688419736345649 16.55061944490483 L14.534801158103033 16.584964741608236 L14.38079213984171 16.623639286700755 L14.226497308103742 16.666666666666664 L14.072021984944096 16.714068129441493 L13.917472138082948 16.765862567474976 L13.762954330681426 16.822066501823173 L13.608575670761478 16.882694067277672 L13.45444376029086 16.947756998539393 L13.30066664395426 17.017264617444134 L13.147352757631834 17.091223821246516 L12.994610876606496 17.169639071968664 L12.842550063521454 17.25251238681936 L12.6912796161096 17.33984332968924 L12.540909014716501 17.431629003726876 L12.39154786963877 17.52786404500042 L12.243305868299824 17.628540617248913 L12.096292722284936 17.733648407726896 L11.950618114257763 17.84317462414566 L11.806391644780474 17.957103992713915 L11.663722779059654 18.075418757280268 L11.522720793640353 18.198098679579417 L11.383494723070504 18.32512104058366 L11.24615330655815 18.456460642960618 L11.110804934643761 18.592089814637923 L10.977557595910138 18.731978413474955 L10.846518823752252 18.876093833041416 L10.717795643229447 19.0244010095019 L10.591494518022404 19.17686242960545 L10.467721297517235 19.333438139778355 L10.34658116403912 19.49408575631821 L10.22817858025773 19.658760476686655 L10.112617236786797 19.827415091897976 L10 20 L9.890428860085377 20.176463220643644 L9.784004879360355 20.356750410736673 L9.680828140869403 20.540804881177085 L9.58099769728628 20.728567614660864 L9.484611520142687 20.919977284558616 L9.391766449405084 21.11497027485497 L9.302558143421306 21.313480701144368 L9.217081029258457 21.515440432676268 L9.135428253453485 21.720779115442543 L9.057691633197688 21.929424196299227 L8.983961607976216 22.14130094811456 L8.914327191683535 22.356332495934602 L8.84887592523564 22.574439844157563 L8.787693829699597 22.79554190470727 L8.73086535996087 23.019555526196076 L8.678473358948688 23.246395524066877 L8.630599012439466 23.475974711703646 L8.587321804458156 23.70820393249937 L8.548719473297163 23.942992092870007 L8.514867968172231 24.180246196202617 L8.485841406534512 24.41987137772537 L8.461712032057758 24.661770940286907 L8.44255017331936 24.905846391031993 L8.428424203193723 25.151997478960133 L8.419400498976138 25.40012223335338 L8.415543403255182 25.650117003059222 L8.416915185551217 25.901876496614108 L8.423576004738512 26.155293823192785 L8.435583872267989 26.410260534368234 L8.452994616207482 26.666666666666664 L8.475861846116045 26.924400784901838 L8.504236918768447 27.183350026272333 L8.538168904745872 27.44340014520537 L8.577704555908312 27.70443555893029 L8.622888273764 27.966339393764525 L8.673762078750736 28.22899353209462 L8.730365580443758 28.492278660034458 L8.792735948704399 28.756074315742694 L8.860907885783414 29.020258938381 L8.934913599392537 29.284709917694457 L9.014782776757432 29.549303644195163 L9.100542559664884 29.81391555992992 L9.192217520516701 30.078420209812478 L9.289829639402301 30.34269129350062 L9.393398282201785 30.606601717798213 L9.502940179730711 30.87002364956184 L9.618469407937523 31.132828569091817 L9.739997369164172 31.39488732398671 L9.867532774479944 31.65607018344059 L10.001081627098275 31.91624689296188 L10.140647206885877 32.17528672949254 L10.286230055972945 32.43305855690606 L10.437827965473012 32.68943088186254 L10.595435963320428 32.94427190999916 L10.759046303233141 33.19744960243376 L10.928648454807885 33.44883173255957 L11.104229094754562 33.698285943108594 L11.285772099276187 33.945679803461225 L11.47325853760021 34.190880867179416 L11.666666666666668 34.433756729740644 L11.865971926978121 34.674175086449864 L12.07114693961606 34.91200379050632 L12.282161504427703 35.147110911202255 L12.498982599386899 35.37936479223019 L12.721574381132399 35.60863411007564 L12.949898186686127 35.83478793247174 L13.183912536353773 36.05769577689257 L13.42357313780954 36.277227669061375 L13.668832891366362 36.49325420145057 L13.919641896432552 36.705646591749485 L14.175947459155303 36.914276741276666 L14.437694101250944 37.119017293312766 L14.704823570021542 37.31974169133053 L14.977274849556895 37.516324237098246 L15.254984173120448 37.70864014863292 L15.53788503671724 37.89656561797949 L15.82590821384162 38.079977868792696 L16.118981771401828 38.25875521369771 L16.417031086818213 38.43277711140614 L16.719978866291317 38.60192422356393 L17.02774516423561 38.766078471307615 L17.3402474038743 38.92512309150557 L17.657400398989942 39.07894269266097 L17.97911637682536 39.22742331045328 L18.30530500212886 39.370452462895045 L18.6358734023371 39.50791920508101 L18.970726193888773 39.63971418350662 L19.309765509661652 39.765729689933224 L19.65289102752514 39.88585971477711 L19.999999999999996 40 L20 40 L20.34904812874567 39.996953903127825 L20.69798993405002 39.987816540381914 L21.046719124858875 39.972590695091476 L21.395129474882506 39.951281005196485 L21.743114854953163 39.92389396183491 L22.090569265353068 39.89043790736547 L22.437386868102948 39.850923032826444 L22.78346201920131 39.805361374831406 L23.128689300804616 39.75376681190275 L23.472963553338605 39.696155060244166 L23.816179907530895 39.632543668953275 L24.158233816355185 39.562952014676114 L24.4990210868773 39.4874012957047 L24.838437911993353 39.40591452551993 L25.176380902050415 39.31851652578136 L25.512747116339984 39.22523391876638 L25.847434094454734 39.12609511926071 L26.18033988749895 39.02113032590307 L26.51136308914313 38.910371511986334 L26.840402866513372 38.79385241571817 L27.167358990906006 38.67160852994404 L27.49213186831824 38.543677091335745 L27.814622569785474 38.4100970690488 L28.134732861516003 38.27090915285201 L28.45236523481399 38.126155740733 L28.767422935781546 37.97588092598334 L29.079809994790935 37.82013048376736 L29.389431255717817 37.658951857178536 L29.69619240492674 37.492394142787916 L30 37.32050807568878 L30.300761498201084 37.14334601404225 L30.598385284664097 36.96096192312852 L30.89278070030054 36.77341135890848 L31.18385806941494 36.58075145110084 L31.47152872702092 36.383040885779835 L31.755705045849464 36.180339887498945 L32.036300463040966 35.972710200945855 L32.31322950651317 35.76021507213444 L32.58640782099675 35.542919229139414 L32.85575219373079 35.32088886237956 L33.121180579810144 35.094191604455446 L33.38261212717717 34.86289650954788 L33.63996720124997 34.627074032383405 L33.893167409179945 34.386796006773025 L34.14213562373095 34.14213562373095 L34.38679600677302 33.893167409179945 L34.627074032383405 33.63996720124997 L34.86289650954788 33.38261212717717 L35.09419160445544 33.121180579810144 L35.32088886237956 32.85575219373079 L35.542919229139414 32.586407820996754 L35.76021507213444 32.31322950651317 L35.972710200945855 32.036300463040966 L36.180339887498945 31.755705045849467 L36.383040885779835 31.471528727020925 L36.58075145110084 31.18385806941494 L36.773411358908476 30.892780700300545 L36.96096192312852 30.598385284664097 L37.143346014042244 30.300761498201087 L37.32050807568877 30 L37.492394142787916 29.69619240492674 L37.658951857178536 29.389431255717817 L37.82013048376736 29.079809994790935 L37.97588092598334 28.767422935781546 L38.126155740733 28.45236523481399 L38.27090915285201 28.134732861516003 L38.4100970690488 27.814622569785477 L38.54367709133575 27.49213186831824 L38.67160852994403 27.16735899090601 L38.79385241571817 26.840402866513376 L38.910371511986334 26.511363089143135 L39.02113032590307 26.18033988749895 L39.12609511926071 25.847434094454734 L39.22523391876638 25.512747116339984 L39.31851652578136 25.176380902050415 L39.40591452551993 24.83843791199336 L39.4874012957047 24.4990210868773 L39.562952014676114 24.15823381635519 L39.632543668953275 23.8161799075309 L39.696155060244166 23.47296355333861 L39.75376681190275 23.12868930080462 L39.805361374831406 22.783462019201313 L39.850923032826444 22.437386868102948 L39.89043790736547 22.090569265353068 L39.92389396183491 21.743114854953163 L39.951281005196485 21.39512947488251 L39.972590695091476 21.04671912485888 L39.987816540381914 20.69798993405002 L39.996953903127825 20.349048128745668 L40 20 L39.996953903127825 19.650951871254332 L39.987816540381914 19.302010065949986 L39.972590695091476 18.95328087514113 L39.951281005196485 18.604870525117494 L39.92389396183491 18.256885145046834 L39.89043790736547 17.909430734646932 L39.850923032826444 17.562613131897052 L39.805361374831406 17.21653798079869 L39.75376681190275 16.87131069919538 L39.696155060244166 16.527036446661395 L39.632543668953275 16.183820092469105 L39.562952014676114 15.841766183644818 L39.4874012957047 15.500978913122704 L39.40591452551993 15.161562088006644 L39.31851652578136 14.823619097949583 L39.22523391876638 14.48725288366002 L39.12609511926071 14.152565905545266 L39.02113032590307 13.819660112501053 L38.91037151198634 13.488636910856872 L38.79385241571817 13.159597133486626 L38.67160852994404 12.832641009093994 L38.543677091335745 12.507868131681759 L38.4100970690488 12.185377430214528 L38.27090915285201 11.865267138483999 L38.126155740733 11.547634765186013 L37.97588092598334 11.23257706421845 L37.82013048376736 10.920190005209065 L37.65895185717854 10.61056874428219 L37.492394142787916 10.30380759507326 L37.32050807568878 10.000000000000004 L37.14334601404225 9.699238501798916 L36.96096192312852 9.401614715335905 L36.77341135890848 9.107219299699459 L36.58075145110084 8.816141930585067 L36.38304088577984 8.528471272979083 L36.180339887498945 8.24429495415054 L35.972710200945855 7.963699536959032 L35.76021507213444 7.686770493486836 L35.54291922913942 7.413592179003254 L35.32088886237956 7.144247806269215 L35.09419160445544 6.878819420189849 L34.86289650954788 6.617387872822835 L34.62707403238341 6.360032798750034 L34.386796006773025 6.1068325908200585 L34.14213562373095 5.857864376269051 L33.893167409179945 5.613203993226977 L33.63996720124997 5.372925967616592 L33.38261212717717 5.137103490452118 L33.121180579810144 4.905808395544559 L32.855752193730794 4.679111137620442 L32.586407820996754 4.4570807708605855 L32.31322950651317 4.239784927865562 L32.03630046304096 4.027289799054142 L31.755705045849467 3.819660112501051 L31.471528727020928 3.6169591142201654 L31.18385806941494 3.4192485488991657 L30.892780700300538 3.226588641091517 L30.598385284664097 3.0390380768714778 L30.300761498201087 2.856653985957756 L30 2.6794919243112254 L29.69619240492674 2.5076058572120843 L29.389431255717824 2.341048142821464 L29.079809994790935 2.1798695162326425 L28.767422935781546 2.02411907401666 L28.45236523481399 1.8738442592670026 L28.134732861516007 1.7290908471479867 L27.814622569785485 1.5899029309511938 L27.492131868318246 1.456322908664255 L27.167358990906003 1.3283914700559656 L26.84040286651338 1.2061475842818332 L26.51136308914314 1.0896284880136662 L26.18033988749895 0.9788696740969307 L25.84743409445474 0.8739048807392926 L25.512747116339995 0.7747660812336257 L25.17638090205042 0.6814834742186378 L24.838437911993353 0.594085474480071 L24.499021086877296 0.5125987042952964 L24.158233816355185 0.4370479853238862 L23.8161799075309 0.3674563310467214 L23.472963553338605 0.3038449397558374 L23.12868930080462 0.24623318809724637 L22.783462019201316 0.19463862516859365 L22.43738686810295 0.14907696717355634 L22.090569265353075 0.10956209263453331 L21.743114854953173 0.07610603816508998 L21.39512947488251 0.04871899480351516 L21.046719124858875 0.02740930490852378 L20.697989934050014 0.01218345961808609 L20.349048128745668 0.0030460968721754966 L20.000000000000004 0" stroke="black" stroke-width="0" fill="black" transform="rotate(22.5 20 20)"/>
<circle cx="25" cy="20" r="1.25" stroke="white" stroke-width="0" fill="black"/>
<circle cx="15" cy="20" r="1.25" stroke="black" stroke-width="0" fill="white"/>

</svg>
